<?xml version="1.0" encoding="iso-8859-1"?>
<!-- Generator: Adobe Illustrator 19.0.0, SVG Export Plug-In . SVG Version: 6.00 Build 0)  -->
<svg version="1.1" id="Layer_1" xmlns="http://www.w3.org/2000/svg" xmlns:xlink="http://www.w3.org/1999/xlink" x="0px" y="0px"
	 viewBox="0 0 512 512" style="enable-background:new 0 0 512 512;" xml:space="preserve">
<path style="fill:#2D2D2D;" d="M57.736,106.664h396.712V396.8c12.304,0,19.336,0,19.2,0V102.4c0-7.04-5.76-12.8-12.8-12.8H51.328
	c-7.04,0-12.8,5.76-12.8,12.8v294.4c0,0,7.008,0,19.2,0V106.664H57.736z"/>
<path style="fill:#8AD5DD;" d="M57.736,106.664V396.8c71.888,0,324.84,0,396.712,0V106.664H57.736z M411.504,324.904l-21.344-3.56
	v-16.6l-26.384-5.104v54.024h-263.28V149.68h263.272v49.064l26.384-5.104V182l21.344-3.56v146.464H411.504z"/>
<path style="fill:#E8E8E8;" d="M512,396.8h-38.352c0.136,0-6.896,0-19.2,0c-71.872,0-324.824,0-396.712,0c-12.2,0-19.2,0-19.2,0H0
	v8.536h512V396.8z"/>
<polygon style="fill:#C9C9C9;" points="486.4,422.4 512,405.336 0,405.336 25.6,422.4 "/>
<path style="fill:#2D2D2D;" d="M390.16,193.64l-26.384,5.104V149.68h-263.28v203.976h263.272v-54.024l26.384,5.104v16.6l21.344,3.56
	V178.44L390.16,182V193.64z M318.584,164.688h22.064v12.456h-22.064V164.688z M279.832,164.688h22.064v12.456h-22.064V164.688z
	 M241.072,164.688h22.064v12.456h-22.064L241.072,164.688L241.072,164.688z M202.32,164.688h22.064v12.456H202.32V164.688z
	 M163.56,164.688h22.064v12.456H163.56V164.688z M124.808,164.688h22.064v12.456h-22.064V164.688z M146.872,338.656h-22.064V326.2
	h22.064V338.656z M185.624,338.656H163.56V326.2h22.064V338.656z M224.376,338.656H202.32V326.2h22.064v12.456H224.376z
	 M263.136,338.656h-22.064V326.2h22.064V338.656z M301.888,338.656h-22.064V326.2h22.064V338.656z M340.648,338.656h-22.064V326.2
	h22.064V338.656z M340.648,316.736h-215.84V186.6h215.84V316.736z"/>
<path style="fill:#DB2B42;" d="M340.648,186.6h-215.84v130.136h215.84V186.6z M201.256,294.44v-85.032l79.64,42.52L201.256,294.44z"
	/>
<g>
	<rect x="124.808" y="164.688" style="fill:#FFFFFF;" width="22.064" height="12.456"/>
	<rect x="163.56" y="164.688" style="fill:#FFFFFF;" width="22.064" height="12.456"/>
	<rect x="202.32" y="164.688" style="fill:#FFFFFF;" width="22.064" height="12.456"/>
	<rect x="241.04" y="164.688" style="fill:#FFFFFF;" width="22.064" height="12.456"/>
	<rect x="279.832" y="164.688" style="fill:#FFFFFF;" width="22.064" height="12.456"/>
	<rect x="318.584" y="164.688" style="fill:#FFFFFF;" width="22.064" height="12.456"/>
	<rect x="124.808" y="326.2" style="fill:#FFFFFF;" width="22.064" height="12.456"/>
	<rect x="163.56" y="326.2" style="fill:#FFFFFF;" width="22.064" height="12.456"/>
	<rect x="202.32" y="326.2" style="fill:#FFFFFF;" width="22.064" height="12.456"/>
	<rect x="241.04" y="326.2" style="fill:#FFFFFF;" width="22.064" height="12.456"/>
	<rect x="279.832" y="326.2" style="fill:#FFFFFF;" width="22.064" height="12.456"/>
	<rect x="318.584" y="326.2" style="fill:#FFFFFF;" width="22.064" height="12.456"/>
	<polygon style="fill:#FFFFFF;" points="201.256,294.44 280.896,251.928 201.256,209.408 	"/>
</g>
<g>
</g>
<g>
</g>
<g>
</g>
<g>
</g>
<g>
</g>
<g>
</g>
<g>
</g>
<g>
</g>
<g>
</g>
<g>
</g>
<g>
</g>
<g>
</g>
<g>
</g>
<g>
</g>
<g>
</g>
</svg>
